<!-- Generated by IcoMoon.io -->
<svg version="1.1" xmlns="http://www.w3.org/2000/svg" width="32" height="32" viewBox="0 0 32 32">
<title>search</title>
<path d="M31.242 28.766l-7.943-7.943c3.813-5.024 3.431-12.237-1.151-16.82-2.423-2.423-5.645-3.758-9.072-3.758s-6.649 1.335-9.072 3.758-3.758 5.645-3.758 9.072c0 3.427 1.335 6.649 3.758 9.072 2.501 2.501 5.786 3.752 9.072 3.752 2.734 0 5.466-0.869 7.748-2.601l7.943 7.943c0.341 0.342 0.79 0.513 1.238 0.513s0.896-0.171 1.238-0.513c0.684-0.683 0.684-1.792 0-2.475zM6.479 19.672c-1.762-1.762-2.733-4.105-2.733-6.597s0.97-4.835 2.733-6.597c1.762-1.762 4.105-2.732 6.596-2.732s4.835 0.97 6.597 2.733c3.637 3.637 3.637 9.556 0 13.193s-9.556 3.636-13.193-0z"></path>
</svg>
